HIERARCHY
ROOT root
{
	OFFSET	0	13.1	24.9
	CHANNELS 6  Xposition Yposition Zposition Xrotation Yrotation Zrotation
	JOINT spine_1
	{
		OFFSET	0	9.99999	0
		CHANNELS 3  Xrotation Yrotation Zrotation
		JOINT spine_2
		{
			OFFSET	0	112	-10
			CHANNELS 3  Xrotation Yrotation Zrotation
			JOINT spine_3
			{
				OFFSET	0	206.5	19.3
				CHANNELS 3  Xrotation Yrotation Zrotation
				JOINT spine_4
				{
					OFFSET	0	110.4	14.6
					CHANNELS 3  Xrotation Yrotation Zrotation
					JOINT neck_1
					{
						OFFSET	0	71.8	-50.3
						CHANNELS 3  Xrotation Yrotation Zrotation
						JOINT neck_2
						{
							OFFSET	0	86.2	-25.8
							CHANNELS 3  Xrotation Yrotation Zrotation
							JOINT head_ee
							{
								OFFSET	0	179.8	-8.7
								CHANNELS 3  Xrotation Yrotation Zrotation
								End Site
								{
									OFFSET	1	0	0
								}
							}
						}
					}
					JOINT left_clavicle
					{
						OFFSET	-43.2	22.4	-70.8
						CHANNELS 3  Xrotation Yrotation Zrotation
						JOINT left_shoulder
						{
							OFFSET	-93.9	-5.79999	48.7
							CHANNELS 3  Xrotation Yrotation Zrotation
							JOINT left_elbow
							{
								OFFSET	-291.4	-30.8	15.2
								CHANNELS 3  Xrotation Yrotation Zrotation
								JOINT left_lowarm_twist
								{
									OFFSET	-110.7	-3.89999	13.6
									CHANNELS 3  Xrotation Yrotation Zrotation
									JOINT left_hand
									{
										OFFSET	-110.7	-3.89999	13.6
										CHANNELS 3  Xrotation Yrotation Zrotation
										JOINT left_ee
										{
											OFFSET	-80.8	-5.10001	12.1
											CHANNELS 3  Xrotation Yrotation Zrotation
											End Site
											{
												OFFSET	1	0	0
											}
										}
									}
								}
							}
						}
					}
					JOINT right_clavicle
					{
						OFFSET	43.2	22.4	-70.8
						CHANNELS 3  Xrotation Yrotation Zrotation
						JOINT right_shoulder
						{
							OFFSET	93.9	-5.79999	48.7
							CHANNELS 3  Xrotation Yrotation Zrotation
							JOINT right_elbow
							{
								OFFSET	291.4	-30.8	15.2
								CHANNELS 3  Xrotation Yrotation Zrotation
								JOINT right_lowarm_twist
								{
									OFFSET	110.7	-3.89999	13.6
									CHANNELS 3  Xrotation Yrotation Zrotation
									JOINT right_hand
									{
										OFFSET	110.7	-3.89999	13.6
										CHANNELS 3  Xrotation Yrotation Zrotation
										JOINT right_ee
										{
											OFFSET	80.8	-5.10001	12.1
											CHANNELS 3  Xrotation Yrotation Zrotation
											End Site
											{
												OFFSET	1	0	0
											}
										}
									}
								}
							}
						}
					}
				}
			}
		}
	}
	JOINT left_hip
	{
		OFFSET	-82.8	-127.5	0.300001
		CHANNELS 3  Xrotation Yrotation Zrotation
		JOINT left_knee
		{
			OFFSET	-28.2	-396.7	2.2
			CHANNELS 3  Xrotation Yrotation Zrotation
			JOINT left_ankle
			{
				OFFSET	-11.7	-411.3	35.4
				CHANNELS 3  Xrotation Yrotation Zrotation
				JOINT left_toes
				{
					OFFSET	0	-60	-88.6
					CHANNELS 3  Xrotation Yrotation Zrotation
					JOINT left_foot_ee
					{
						OFFSET	-22.5	-16.5	-42.2
						CHANNELS 3  Xrotation Yrotation Zrotation
						End Site
						{
							OFFSET	1	0	0
						}
					}
				}
			}
		}
	}
	JOINT right_hip
	{
		OFFSET	82.8	-127.5	0.300001
		CHANNELS 3  Xrotation Yrotation Zrotation
		JOINT right_knee
		{
			OFFSET	28.2	-396.7	2.2
			CHANNELS 3  Xrotation Yrotation Zrotation
			JOINT right_ankle
			{
				OFFSET	11.7	-411.3	35.4
				CHANNELS 3  Xrotation Yrotation Zrotation
				JOINT right_toes
				{
					OFFSET	0	-60	-88.6
					CHANNELS 3  Xrotation Yrotation Zrotation
					JOINT right_foot_ee
					{
						OFFSET	22.5	-16.5	-42.2
						CHANNELS 3  Xrotation Yrotation Zrotation
						End Site
						{
							OFFSET	1	0	0
						}
					}
				}
			}
		}
	}
}
MOTION
Frames: 14
Frame Time: 0.02
3177.02 653.055 -1669.29 -1.19250423501 7.99373734828 6.16166473209 -1.55938 -0.0895811 -0.257148 -1.55935 -0.0730366 -0.262327 -1.55897 -0.00886949 -0.27216 -1.55907 -0.0517407 -0.267344 -0.339437 16.3644 5.6271 0.1051 24.7544 7.72669 -0.0 0.0 -0.0 5.49142 12.5277 10.6749 -24.8181 -20.3957 66.9373 0.650904 -17.8714 0.102345 3.86484 0.120049 -0.478967 -0.759318 2.82366 -3.84452 -0.0 0.0 -0.0 12.1189 22.069 -24.0449 -9.35948 32.8462 -46.7794 1.49618 36.5422 -0.494002 -40.2139 2.97394 -4.07598 -6.05478 -8.22112 38.9257 0.0 0.0 0.0 15.5009 -33.7451 -15.5072 -6.86037 0.221066 1.02903 -0.3833 23.6484 0.0581839 29.8989 -0.0 -0.0 -0.0 0.0 -0.0 -6.91587 12.1991 -1.8807 -17.2527 -0.318227 -2.61847 23.0576 7.51737 3.20205 32.9844 -0.0 -0.0 0.0 0.0 0.0 
3159.94615319 653.016 -1687.92407242 -1.108911597 7.2233176735 6.63880379363 -1.44008 -0.00737283 -0.653814 -1.43984 0.0342451 -0.652958 -1.44006 0.186533 -0.626685 -1.4406 0.0852209 -0.648278 0.402823 16.7026 5.65045 0.901128 25.1406 7.67172 -0.0 0.0 -0.0 5.71049 11.6745 11.0651 -24.1335 -20.2535 67.8923 0.614569 -16.9325 0.0914785 4.08836 0.125999 -0.506899 -0.579273 2.90414 -2.61589 -0.0 0.0 -0.0 12.4725 22.6638 -24.8062 -11.245 31.4539 -46.3773 1.31652 33.1095 -0.391356 -40.1812 2.97046 -4.07364 -6.03253 -8.45509 38.5549 0.0 0.0 0.0 17.4719 -34.3796 -13.9723 -12.5823 0.310263 1.90214 2.64115 25.5922 -0.40212 31.2864 -0.0 -0.0 -0.0 0.0 -0.0 -7.47563 14.1369 -2.00368 -17.9578 -0.314356 -2.72659 20.9844 4.67384 2.91234 33.3541 -0.0 -0.0 0.0 0.0 0.0 
3159.84971018 653.016 -1687.83524326 -1.10965612042 7.52051137341 6.64460633387 -1.44008 -0.00737283 -0.653814 -1.43984 0.0342451 -0.652958 -1.44006 0.186533 -0.626685 -1.4406 0.0852209 -0.648278 0.402823 16.7026 5.65045 0.901128 25.1406 7.67172 -0.0 0.0 -0.0 5.71049 11.6745 11.0651 -24.1335 -20.2535 67.8923 0.614569 -16.9325 0.0914785 4.08836 0.125999 -0.506899 -0.579273 2.90414 -2.61589 -0.0 0.0 -0.0 12.4725 22.6638 -24.8062 -11.245 31.4539 -46.3773 1.31652 33.1095 -0.391356 -40.1812 2.97046 -4.07364 -6.03253 -8.45509 38.5549 0.0 0.0 0.0 17.4719 -34.3796 -13.9723 -12.5823 0.310263 1.90214 2.64115 25.5922 -0.40212 31.2864 -0.0 -0.0 -0.0 0.0 -0.0 -7.47563 14.1369 -2.00368 -17.9578 -0.314356 -2.72659 20.9844 4.67384 2.91234 33.3541 -0.0 -0.0 0.0 0.0 0.0 
3159.76105706 653.016 -1687.75276763 -1.11037111721 7.794964763 6.64997193906 -1.44008 -0.00737283 -0.653814 -1.43984 0.0342451 -0.652958 -1.44006 0.186533 -0.626685 -1.4406 0.0852209 -0.648278 0.402823 16.7026 5.65045 0.901128 25.1406 7.67172 -0.0 0.0 -0.0 5.71049 11.6745 11.0651 -24.1335 -20.2535 67.8923 0.614569 -16.9325 0.0914785 4.08836 0.125999 -0.506899 -0.579273 2.90414 -2.61589 -0.0 0.0 -0.0 12.4725 22.6638 -24.8062 -11.245 31.4539 -46.3773 1.31652 33.1095 -0.391356 -40.1812 2.97046 -4.07364 -6.03253 -8.45509 38.5549 0.0 0.0 0.0 17.4719 -34.3796 -13.9723 -12.5823 0.310263 1.90214 2.64115 25.5922 -0.40212 31.2864 -0.0 -0.0 -0.0 0.0 -0.0 -7.47563 14.1369 -2.00368 -17.9578 -0.314356 -2.72659 20.9844 4.67384 2.91234 33.3541 -0.0 -0.0 0.0 0.0 0.0 
3118.36148533 658.392 -1726.01469265 0.201040427023 8.24840080284 5.56565540069 -1.90843 -0.0647735 -0.491962 -1.9083 -0.0333378 -0.495087 -1.90787 0.0877722 -0.488384 -1.90821 0.0095406 -0.496116 0.191585 17.6241 7.45438 0.724148 25.3709 9.71835 -0.0 0.0 -0.0 5.64994 15.8003 10.8614 -19.2702 -20.4888 66.6238 0.686619 -18.7848 0.113577 4.97246 0.148467 -0.6176 -0.961075 3.56962 -4.85476 -0.0 0.0 -0.0 11.5854 21.7617 -22.8495 -13.3289 30.8837 -48.2931 1.12095 29.042 -0.290346 -38.7673 2.82103 -3.97073 -5.94245 -5.01341 40.3933 0.0 0.0 0.0 20.6469 -38.6126 -7.81277 -22.6913 0.253973 3.45019 3.91201 28.8988 -0.605666 31.7162 -0.0 -0.0 -0.0 0.0 -0.0 -6.94098 21.8824 -1.70693 -22.7239 -0.253351 -3.45514 20.9232 -2.21307 2.85457 33.9031 -0.0 -0.0 0.0 0.0 0.0 
3112.18362748 658.112 -1751.89278929 1.59828334413 9.56273655481 5.98016877822 -2.14206 -0.12007 -0.755916 -2.14174 -0.0717271 -0.762024 -2.14043 0.118364 -0.756185 -2.14123 -0.00254272 -0.765387 -0.733013 16.2638 8.06186 -0.3121 22.6936 10.3629 -0.0 0.0 -0.0 5.83741 14.6449 11.2049 -20.3575 -23.1083 65.0046 0.594644 -16.4135 0.0857616 3.72395 0.116242 -0.461373 -0.710481 6.90067 -1.74961 -0.0 0.0 -0.0 12.2178 21.585 -24.313 -14.9036 29.2695 -48.3779 0.920574 24.5138 -0.199997 -39.5657 2.90509 -4.02929 -5.77982 -7.22174 37.3652 0.0 0.0 0.0 21.5323 -34.2702 -7.35571 -28.6263 0.0942271 4.34659 7.04642 23.4126 -1.04872 30.0967 -0.0 -0.0 -0.0 0.0 -0.0 -5.74804 22.1279 -4.86608 -27.5842 -0.128991 -4.19043 20.9774 -6.25671 2.85139 35.452 -0.0 -0.0 0.0 0.0 0.0 
3112.30719854 658.112 -1751.98963318 1.59788271378 9.47710749548 5.98259110697 -2.14206 -0.12007 -0.755916 -2.14174 -0.0717271 -0.762024 -2.14043 0.118364 -0.756185 -2.14123 -0.00254272 -0.765387 -0.733013 16.2638 8.06186 -0.3121 22.6936 10.3629 -0.0 0.0 -0.0 5.83741 14.6449 11.2049 -20.3575 -23.1083 65.0046 0.594644 -16.4135 0.0857616 3.72395 0.116242 -0.461373 -0.710481 6.90067 -1.74961 -0.0 0.0 -0.0 12.2178 21.585 -24.313 -14.9036 29.2695 -48.3779 0.920574 24.5138 -0.199997 -39.5657 2.90509 -4.02929 -5.77982 -7.22174 37.3652 0.0 0.0 0.0 21.5323 -34.2702 -7.35571 -28.6263 0.0942271 4.34659 7.04642 23.4126 -1.04872 30.0967 -0.0 -0.0 -0.0 0.0 -0.0 -5.74804 22.1279 -4.86608 -27.5842 -0.128991 -4.19043 20.9774 -6.25671 2.85139 35.452 -0.0 -0.0 0.0 0.0 0.0 
3112.32408515 658.112 -1752.00284423 1.59782829464 9.46541363816 5.98292181609 -2.14206 -0.12007 -0.755916 -2.14174 -0.0717271 -0.762024 -2.14043 0.118364 -0.756185 -2.14123 -0.00254272 -0.765387 -0.733013 16.2638 8.06186 -0.3121 22.6936 10.3629 -0.0 0.0 -0.0 5.83741 14.6449 11.2049 -20.3575 -23.1083 65.0046 0.594644 -16.4135 0.0857616 3.72395 0.116242 -0.461373 -0.710481 6.90067 -1.74961 -0.0 0.0 -0.0 12.2178 21.585 -24.313 -14.9036 29.2695 -48.3779 0.920574 24.5138 -0.199997 -39.5657 2.90509 -4.02929 -5.77982 -7.22174 37.3652 0.0 0.0 0.0 21.5323 -34.2702 -7.35571 -28.6263 0.0942271 4.34659 7.04642 23.4126 -1.04872 30.0967 -0.0 -0.0 -0.0 0.0 -0.0 -5.74804 22.1279 -4.86608 -27.5842 -0.128991 -4.19043 20.9774 -6.25671 2.85139 35.452 -0.0 -0.0 0.0 0.0 0.0 
3112.06693774 658.112 -1751.80106413 1.59866556648 9.64368950001 5.97787760812 -2.14206 -0.12007 -0.755916 -2.14174 -0.0717271 -0.762024 -2.14043 0.118364 -0.756185 -2.14123 -0.00254272 -0.765387 -0.733013 16.2638 8.06186 -0.3121 22.6936 10.3629 -0.0 0.0 -0.0 5.83741 14.6449 11.2049 -20.3575 -23.1083 65.0046 0.594644 -16.4135 0.0857616 3.72395 0.116242 -0.461373 -0.710481 6.90067 -1.74961 -0.0 0.0 -0.0 12.2178 21.585 -24.313 -14.9036 29.2695 -48.3779 0.920574 24.5138 -0.199997 -39.5657 2.90509 -4.02929 -5.77982 -7.22174 37.3652 0.0 0.0 0.0 21.5323 -34.2702 -7.35571 -28.6263 0.0942271 4.34659 7.04642 23.4126 -1.04872 30.0967 -0.0 -0.0 -0.0 0.0 -0.0 -5.74804 22.1279 -4.86608 -27.5842 -0.128991 -4.19043 20.9774 -6.25671 2.85139 35.452 -0.0 -0.0 0.0 0.0 0.0 
3092.0909701 663.433 -1777.56892861 3.62631895011 10.545736057 4.41602703117 -2.6841 -0.00783264 -0.350505 -2.68404 0.0144866 -0.350293 -2.68405 0.103586 -0.33494 -2.68421 0.0493887 -0.347096 1.68685 17.4134 6.49217 2.2721 25.3351 8.46326 -0.0 0.0 -0.0 7.15117 12.3596 13.5324 -23.0595 -23.2607 63.0578 0.420011 -11.7535 0.043232 3.58233 0.112372 -0.443697 0.207421 2.26459 2.32793 -0.0 0.0 -0.0 11.8998 21.3172 -23.6046 -17.1565 28.5605 -49.9474 0.859522 23.0632 -0.175369 -38.7459 2.81878 -3.96914 -6.0897 -8.29083 39.1693 0.0 0.0 0.0 17.3618 -33.6394 -4.94329 -26.3518 0.166423 4.00502 10.9806 25.3434 -1.63097 31.5673 -0.0 -0.0 -0.0 0.0 -0.0 -2.47503 29.719 -7.3177 -36.5377 0.261315 -5.50748 24.7805 -7.03593 3.3053 36.0726 -0.0 -0.0 0.0 0.0 0.0 
3067.47967096 663.921 -1808.96737295 5.55292568052 10.1485546428 2.36157362503 -2.78398 0.0508893 -0.256034 -2.78394 0.0670782 -0.252277 -2.78421 0.129759 -0.226508 -2.78427 0.0923581 -0.244158 0.0846925 17.9452 7.96472 0.632903 25.5619 10.3062 -0.0 0.0 -0.0 6.50817 13.5465 12.3702 -14.6641 -26.2055 58.5326 0.5649 -15.6336 0.0775512 3.3532 0.106017 -0.415117 -0.514876 5.63561 -1.01708 -0.0 0.0 -0.0 11.8149 20.6289 -23.4637 -18.4888 28.4106 -51.92 0.684876 18.7404 -0.113016 -37.9272 2.73347 -3.90785 -6.4457 -10.3983 40.5197 0.0 0.0 0.0 15.6087 -39.6788 0.542493 -29.5244 0.0619892 4.48065 14.9569 29.6579 -2.25238 34.4375 -0.0 -0.0 -0.0 0.0 -0.0 -2.06861 36.1954 -7.28676 -42.0518 0.602433 -6.28309 31.1246 -7.32104 4.00814 38.0445 -0.0 -0.0 0.0 0.0 0.0 
3052.29518144 673.507 -1832.56098375 6.61241690104 10.0845806881 1.90090759988 -3.22776 0.267772 -0.186314 -3.22778 0.279085 -0.168897 -3.22868 0.313857 -0.0889298 -3.22857 0.295873 -0.137382 -1.61898 18.5159 10.1082 -1.0804 25.4173 12.853 -0.0 0.0 -0.0 6.81342 15.7376 12.7647 -15.0086 -29.5248 55.805 0.519026 -14.4192 0.065657 2.54495 0.0826903 -0.314511 -0.554749 3.70833 -2.10693 -0.0 0.0 -0.0 12.1698 20.326 -24.3005 -19.6256 27.8987 -52.6768 0.576667 15.9429 -0.0807529 -37.9692 2.73782 -3.91102 -6.20495 -9.39994 39.2726 0.0 0.0 0.0 13.9249 -31.4237 0.285913 -29.8214 0.0508649 4.52488 12.2473 28.5156 -1.84678 35.1582 -0.0 -0.0 -0.0 0.0 -0.0 1.21932 36.0171 -10.4172 -46.3125 0.916392 -6.85832 35.6298 -8.61555 4.46573 38.1941 -0.0 -0.0 0.0 0.0 0.0 
3043.56559888 673.507 -1825.50657186 6.68710179096 13.1938196229 1.53085622814 -3.22776 0.267772 -0.186314 -3.22778 0.279085 -0.168897 -3.22868 0.313857 -0.0889298 -3.22857 0.295873 -0.137382 -1.61898 18.5159 10.1082 -1.0804 25.4173 12.853 -0.0 0.0 -0.0 6.81342 15.7376 12.7647 -15.0086 -29.5248 55.805 0.519026 -14.4192 0.065657 2.54495 0.0826903 -0.314511 -0.554749 3.70833 -2.10693 -0.0 0.0 -0.0 12.1698 20.326 -24.3005 -19.6256 27.8987 -52.6768 0.576667 15.9429 -0.0807529 -37.9692 2.73782 -3.91102 -6.20495 -9.39994 39.2726 0.0 0.0 0.0 13.9249 -31.4237 0.285913 -29.8214 0.0508649 4.52488 12.2473 28.5156 -1.84678 35.1582 -0.0 -0.0 -0.0 0.0 -0.0 1.21932 36.0171 -10.4172 -46.3125 0.916392 -6.85832 35.6298 -8.61555 4.46573 38.1941 -0.0 -0.0 0.0 0.0 0.0 
3026.44480894 673.793 -1838.548503 7.2189805501 14.2055535073 0.421920252194 -3.39975 0.300363 -0.00221509 -3.3998 0.299895 0.0169024 -3.39977 0.284416 0.0965917 -3.39966 0.296102 0.0504608 -2.44803 18.2999 10.1697 -1.9507 25.2618 13.0053 -0.0 0.0 -0.0 6.87436 18.4606 12.6804 -13.2002 -32.7995 53.4264 0.559309 -15.4864 0.0760515 1.77707 0.0592147 -0.219238 -0.641823 3.2659 -2.87363 -0.0 0.0 -0.0 12.2454 20.2487 -24.4803 -20.1926 27.8214 -53.2571 0.487719 13.5827 -0.0580824 -37.1864 2.65702 -3.85135 -6.12871 -9.57287 38.4878 0.0 0.0 0.0 14.5983 -30.9385 2.40158 -32.4508 -0.0575811 4.91377 13.074 28.8556 -1.97056 35.7028 -0.0 -0.0 -0.0 0.0 -0.0 5.78176 39.0627 -15.1386 -49.8817 1.21188 -7.32146 38.6024 -11.1735 4.76092 39.2428 -0.0 -0.0 0.0 0.0 0.0 
